<svg width="176" height="70" viewBox="0 0 176 70" fill="none" xmlns="http://www.w3.org/2000/svg">
    <path fill-rule="evenodd" clip-rule="evenodd"
        d="M77.889 34.5304C78.7082 34.2136 79.4111 33.6541 79.9035 32.9267C80.3958 32.1994 80.6542 31.3389 80.6439 30.4606C80.6439 26.7979 78.0455 24.9821 74.4767 24.9821H65.1162V44.8927H75.2906C78.4212 44.8927 81.4892 42.7013 81.4892 39.3515C81.4892 35.3757 77.889 34.5617 77.889 34.5304ZM69.9999 29.1145H73.6314C73.882 29.0994 74.133 29.1376 74.3677 29.2267C74.6025 29.3157 74.8157 29.4536 74.9932 29.6311C75.1707 29.8086 75.3086 30.0218 75.3976 30.2565C75.4867 30.4913 75.5249 30.7422 75.5098 30.9928C75.5049 31.2433 75.4494 31.4902 75.3465 31.7186C75.2437 31.947 75.0957 32.1522 74.9114 32.3219C74.7271 32.4915 74.5103 32.6221 74.2742 32.7058C74.0381 32.7894 73.7875 32.8244 73.5375 32.8086H69.9999V29.1145ZM73.6627 40.729H69.9999V36.8157H73.5688C75.3532 36.8157 76.1985 37.5984 76.1985 38.7567C76.1985 40.1968 75.1341 40.729 73.6627 40.729Z"
        fill="#E0E2E5" />
    <path fill-rule="evenodd" clip-rule="evenodd"
        d="M92.2585 24.4812C86.4982 24.4812 83.1172 29.0832 83.1172 34.9061C83.1172 40.7603 86.4982 45.3309 92.2585 45.3309C98.0501 45.3309 101.4 40.7603 101.4 34.9061C101.4 29.0832 98.0501 24.4812 92.2585 24.4812ZM92.2585 40.5724C89.441 40.5724 88.0322 38.0367 88.0322 34.9061C88.0322 31.7755 89.441 29.271 92.2585 29.271C95.076 29.271 96.5161 31.8068 96.5161 34.9061C96.5161 38.068 95.076 40.5724 92.2585 40.5724Z"
        fill="#E0E2E5" />
    <path fill-rule="evenodd" clip-rule="evenodd"
        d="M112.012 32.8086L111.324 32.6521C109.633 32.3077 108.287 31.8694 108.287 30.6485C108.287 29.3336 109.571 28.8014 110.698 28.8014C111.466 28.8135 112.225 28.9838 112.925 29.3015C113.625 29.6193 114.252 30.0778 114.767 30.6485L117.867 27.5805C116.458 25.9839 114.173 24.4499 110.604 24.4499C106.409 24.4499 103.216 26.7979 103.216 30.7111C103.216 34.28 105.783 36.0331 108.913 36.6905L109.602 36.8471C112.2 37.3793 113.171 37.7862 113.171 39.0385C113.171 40.2281 112.106 41.0107 110.479 41.0107C108.538 41.0107 106.784 40.1655 105.438 38.4437L102.276 41.5743C104.029 43.6717 106.252 45.2997 110.541 45.2997C114.267 45.2997 118.242 43.1709 118.242 38.8193C118.305 34.28 114.861 33.4034 112.012 32.8086Z"
        fill="#E0E2E5" />
    <path fill-rule="evenodd" clip-rule="evenodd"
        d="M129.387 40.5724C127.196 40.5724 124.91 38.7567 124.91 34.7808C124.91 31.2433 127.039 29.271 129.262 29.271C131.015 29.271 132.048 30.085 132.862 31.4937L136.869 28.8327C134.866 25.7961 132.487 24.5125 129.199 24.5125C123.189 24.5125 119.933 29.1771 119.933 34.8122C119.933 40.729 123.533 45.3622 129.137 45.3622C133.081 45.3622 134.96 43.9848 136.995 41.042L132.956 38.3184C132.142 39.6333 131.266 40.5724 129.387 40.5724Z"
        fill="#E0E2E5" />
    <path fill-rule="evenodd" clip-rule="evenodd"
        d="M150.237 24.9821V32.3077H144.195V24.9821H138.967V44.8927H144.195V37.0349H150.237V44.8927H155.465V24.9821H150.237Z"
        fill="#E0E2E5" />
    <path
        d="M35.0001 19.9106C32.0157 19.9106 29.0983 20.7955 26.6169 22.4536C24.1354 24.1116 22.2014 26.4683 21.0593 29.2255C19.9172 31.9828 19.6184 35.0167 20.2006 37.9438C20.7828 40.8709 22.22 43.5596 24.3302 45.6699C26.4405 47.7801 29.1292 49.2173 32.0563 49.7995C34.9834 50.3817 38.0173 50.0829 40.7746 48.9408C43.5318 47.7987 45.8885 45.8647 47.5465 43.3832C49.2046 40.9018 50.0895 37.9844 50.0895 35C50.0874 30.9987 48.4969 27.1619 45.6676 24.3325C42.8382 21.5032 39.0014 19.9127 35.0001 19.9106ZM35.0001 48.6807C32.2943 48.6807 29.6493 47.8783 27.3995 46.3751C25.1497 44.8718 23.3963 42.7352 22.3608 40.2354C21.3253 37.7356 21.0544 34.9848 21.5823 32.331C22.1102 29.6772 23.4131 27.2396 25.3264 25.3263C27.2397 23.413 29.6773 22.1101 32.3311 21.5822C34.9849 21.0543 37.7357 21.3252 40.2355 22.3607C42.7353 23.3962 44.8719 25.1496 46.3752 27.3994C47.8784 29.6492 48.6808 32.2942 48.6808 35C48.677 38.6272 47.2345 42.1048 44.6697 44.6696C42.1049 47.2344 38.6273 48.677 35.0001 48.6807Z"
        fill="#E0E2E5" />
    <path
        d="M41.2299 25.5769H40.1968V30.7424H29.8345V25.5769H28.7701C27.2113 26.6056 25.932 28.0049 25.0469 29.6494C24.1618 31.294 23.6985 33.1324 23.6985 35C23.6985 36.8676 24.1618 38.7061 25.0469 40.3506C25.932 41.9952 27.2113 43.3944 28.7701 44.4231H29.8345V39.2576H40.1968V44.4231H41.2299C42.7887 43.3944 44.0679 41.9952 44.9531 40.3506C45.8382 38.7061 46.3015 36.8676 46.3015 35C46.3015 33.1324 45.8382 31.294 44.9531 29.6494C44.0679 28.0049 42.7887 26.6056 41.2299 25.5769ZM28.3944 42.3882C27.3509 41.4609 26.5157 40.3231 25.9437 39.0496C25.3718 37.7762 25.0761 36.396 25.0761 35C25.0761 33.604 25.3718 32.2239 25.9437 30.9504C26.5157 29.677 27.3509 28.5391 28.3944 27.6118V42.3882ZM40.1968 37.8175H29.8345V32.1512H40.1968V37.8175ZM41.6055 42.3569V39.2263V30.7424V27.6118C42.64 28.5413 43.4673 29.6781 44.0336 30.9483C44.5999 32.2185 44.8926 33.5936 44.8926 34.9844C44.8926 36.3751 44.5999 37.7502 44.0336 39.0204C43.4673 40.2906 42.64 41.4274 41.6055 42.3569Z"
        fill="#E0E2E5" />
</svg>